<svg xmlns="http://www.w3.org/2000/svg" viewBox="0 0 100 100"><g stroke="#754a56" stroke-width="3" stroke-linejoin="round"><path d="M50 50C23 45 18 23 28 17c14-7 23 12 22 33Z" fill="#f3a6b8"/><path d="M50 50C77 45 82 23 72 17 58 10 49 29 50 50Z" fill="#f3a6b8"/><path d="M50 52C35 32 41 13 50 10c9 3 15 22 0 42Z" fill="#ffd7df"/><path d="M50 52C31 55 18 70 25 79c10 13 26-5 25-27Z" fill="#e98ca5"/><path d="M50 52C69 55 82 70 75 79 65 92 49 74 50 52Z" fill="#e98ca5"/></g><circle cx="50" cy="54" r="9" fill="#f6c957"/><path d="M46 63c0 9-6 13-15 18" stroke="#4c8a63" stroke-width="5" fill="none" stroke-linecap="round"/></svg>